Coordinates
version=1
nRows=11
nColumns=26
inDegrees=yes

Units are S.I. units (second, meters, Newtons, ...)
Angles are in degrees.

endheader
time	pelvis_tilt	pelvis_list	pelvis_rotation	pelvis_tx	pelvis_ty	pelvis_tz	hip_flexion_r	hip_adduction_r	hip_rotation_r	knee_angle_r	knee_angle_r_beta	ankle_angle_r	subtalar_angle_r	mtp_angle_r	hip_flexion_l	hip_adduction_l	hip_rotation_l	knee_angle_l	knee_angle_l_beta	ankle_angle_l	subtalar_angle_l	mtp_angle_l	lumbar_extension	lumbar_bending	lumbar_rotation
      0.54166667	      1.72326099	      3.10471720	      4.52901473	      0.69812433	      0.99074390	      0.23388206	     20.59844126	     -4.70287843	    -10.81090896	      3.34802131	      3.34802131	     -1.12190837	      0.00000000	      0.00000000	     -9.52336250	      3.98411617	     -5.85701339	     13.16151387	     13.16151387	     15.29891484	      0.00000000	      0.00000000	    -15.07266485	     -3.07897766	     -1.15172607
      0.55000000	      1.77326484	      3.05067760	      4.60118372	      0.70701701	      0.98934386	      0.23426414	     20.99121683	     -4.70266432	    -11.10316926	      4.85812179	      4.85812179	     -1.06843012	      0.00000000	      0.00000000	    -10.03737066	      3.79496828	     -5.97818414	     13.36854431	     13.36854431	     15.56723765	      0.00000000	      0.00000000	    -15.10517627	     -2.78859487	     -1.23764758
      0.55833333	      1.90574333	      2.98908063	      4.70312785	      0.71619181	      0.98816488	      0.23472804	     21.20672163	     -4.70149227	    -11.26913492	      6.44949926	      6.44949926	     -1.30581003	      0.00000000	      0.00000000	    -10.62204797	      3.59786607	     -6.01228081	     13.65891029	     13.65891029	     15.86083026	      0.00000000	      0.00000000	    -15.20810801	     -2.47012182	     -1.41218251
      0.56666667	      2.09347563	      2.91192706	      4.83217755	      0.72553724	      0.98711191	      0.23522514	     21.28185050	     -4.68532266	    -11.44720005	      7.99043636	      7.99043636	     -1.62375313	      0.00000000	      0.00000000	    -11.25930663	      3.37129586	     -6.01799358	     13.95949861	     13.95949861	     16.07354370	      0.00000000	      0.00000000	    -15.34783684	     -2.11418380	     -1.58972410
      0.57500000	      2.35970658	      2.74780836	      4.92230175	      0.73518856	      0.98619301	      0.23590658	     21.15097365	     -4.51415805	    -11.54282075	      9.32679514	      9.32679514	     -1.79638694	      0.00000000	      0.00000000	    -11.91946546	      3.03222521	     -6.14164800	     14.39852393	     14.39852393	     16.27818606	      0.00000000	      0.00000000	    -15.53009185	     -1.66940654	     -1.71622806
      0.58333333	      2.65712976	      2.53546150	      5.04666801	      0.74498971	      0.98543313	      0.23667923	     20.85353343	     -4.27306215	    -11.60804805	     10.39017027	     10.39017027	     -1.90263243	      0.00000000	      0.00000000	    -12.52677017	      2.61037789	     -6.19048382	     15.01991977	     15.01991977	     16.50596926	      0.00000000	      0.00000000	    -15.71993410	     -1.16045918	     -1.81604659
      0.59166667	      3.03391369	      2.27914347	      5.23577053	      0.75503353	      0.98496952	      0.23730033	     20.33695008	     -4.00710237	    -11.80367384	     11.14992096	     11.14992096	     -2.36557747	      0.00000000	      0.00000000	    -13.22008284	      2.11493342	     -6.20409337	     15.62868532	     15.62868532	     16.60643106	      0.00000000	      0.00000000	    -15.96094580	     -0.56623847	     -1.93365671
      0.60000000	      3.47838336	      2.00380707	      5.45786068	      0.76519678	      0.98474425	      0.23779354	     19.61720622	     -3.72935974	    -12.17857611	     11.63636472	     11.63636472	     -3.25632784	      0.00000000	      0.00000000	    -13.86891397	      1.57456634	     -6.23494907	     16.47940130	     16.47940130	     16.70516560	      0.00000000	      0.00000000	    -16.25389499	      0.07187915	     -1.98736485
      0.60833333	      3.98318006	      1.70700977	      5.71988155	      0.77554048	      0.98470364	      0.23829714	     18.73686625	     -3.44515657	    -12.66322604	     12.00359790	     12.00359790	     -4.15430463	      0.00000000	      0.00000000	    -14.48675417	      0.95807366	     -6.23049182	     17.49297685	     17.49297685	     16.69214269	      0.00000000	      0.00000000	    -16.58078109	      0.74771388	     -2.02961169
      0.61666667	      4.51552241	      1.51073870	      5.90895004	      0.78603348	      0.98484252	      0.23901086	     17.71692819	     -3.20329514	    -13.01154214	     12.19321798	     12.19321798	     -4.96292638	      0.00000000	      0.00000000	    -15.09496912	      0.43277219	     -6.14889074	     18.62667528	     18.62667528	     16.60637503	      0.00000000	      0.00000000	    -16.93142454	      1.27947620	     -1.97778767
      0.62500000	      4.99367946	      1.36883494	      5.91209422	      0.79655942	      0.98503516	      0.24003730	     16.77926825	     -2.96210604	    -13.18222598	     12.43576558	     12.43576558	     -5.55917698	      0.00000000	      0.00000000	    -15.54471401	      0.01962062	     -6.20761616	     19.89780978	     19.89780978	     16.27434106	      0.00000000	      0.00000000	    -17.21527520	      1.69139775	     -1.71532874
